<?xml version="1.0" encoding="utf-8"?>
<!-- Generator: Adobe Illustrator 16.0.3, SVG Export Plug-In . SVG Version: 6.00 Build 0)  -->
<!DOCTYPE svg PUBLIC "-//W3C//DTD SVG 1.1//EN" "http://www.w3.org/Graphics/SVG/1.1/DTD/svg11.dtd">
<svg version="1.1" id="Ebene_1" xmlns:vectornator="http://vectornator.io"
	 xmlns="http://www.w3.org/2000/svg" xmlns:xlink="http://www.w3.org/1999/xlink" x="0px" y="0px" width="963.075px"
	 height="311.282px" viewBox="629.583 170.445 963.075 311.282" enable-background="new 629.583 170.445 963.075 311.282"
	 xml:space="preserve">
<g>
	<path fill="#0B3E75" d="M682.002,445.996h21.21c0-151.524,8.772-115.938,82.443-139.474
		c71.262-22.766,136.51-95.033,152.574-90.418c66.993,19.247,64.721,114.784,64.721,229.892h21.21
		c0-118.92-13.744-246.578-82.641-246.884c-45.599-0.203-123.88,94.008-214.836,99.965
		C675.491,302.429,682.002,376.829,682.002,445.996z"/>
	<path fill="#269F78" d="M814.263,352.676c-45.722,6.214-99.69-28.062-99.69,93.32h17.153c0-103.119,45.671-55.919,99.447-76.948
		c67.766-26.5,90.078-129.955,122.448-79.205c10.451,16.383,20.519,97.82,20.519,156.153h17.151
		c0-58.633,2.999-180.45-50.274-190.565C900.751,247.785,845.438,348.439,814.263,352.676z"/>
	<path fill="#FF6600" d="M919.888,298.458c-27.045,10.132-77.238,45.471-121.568,32.773
		c-42.187-12.083-56.075,43.458-56.075,114.765h13.725c0-37.674,6.456-108.061,31.141-103.448
		c12.946,2.419,36.761,10.097,74.63-4.837c74.722-29.467,88.188,50.707,88.188,108.285h13.726
		C963.653,336.094,951.019,286.794,919.888,298.458z"/>
</g>
<g>
	<path fill="#0B3E75" d="M1085.278,272.013c0-3.147-0.373-5.437-1.119-6.87c-0.747-1.432-2.109-2.148-4.086-2.148
		c-1.09,0-1.988,0.293-2.693,0.877c-0.707,0.585-1.262,1.534-1.665,2.845c-0.403,1.312-0.687,3.026-0.847,5.145
		c-0.162,2.119-0.242,4.712-0.242,7.778c0,3.269,0.11,5.912,0.333,7.929c0.221,2.019,0.564,3.582,1.028,4.691
		c0.464,1.11,1.049,1.856,1.756,2.24c0.705,0.384,1.522,0.575,2.451,0.575c0.766,0,1.482-0.13,2.148-0.393
		c0.666-0.262,1.241-0.787,1.726-1.574c0.483-0.787,0.867-1.896,1.149-3.329c0.282-1.432,0.424-3.319,0.424-5.66h8.716
		c0,2.341-0.182,4.561-0.544,6.658c-0.363,2.099-1.04,3.945-2.028,5.539c-0.989,1.594-2.381,2.855-4.176,3.783
		c-1.797,0.928-4.127,1.392-6.991,1.392c-3.269,0-5.871-0.555-7.809-1.664c-1.937-1.109-3.42-2.653-4.448-4.631
		c-1.029-1.977-1.695-4.348-1.998-7.112c-0.303-2.764-0.454-5.781-0.454-9.049c0-3.269,0.151-6.285,0.454-9.049
		c0.303-2.763,0.969-5.134,1.998-7.112c1.028-1.977,2.512-3.52,4.448-4.63c1.938-1.109,4.54-1.665,7.809-1.665
		c3.106,0,5.558,0.505,7.354,1.513c1.796,1.009,3.138,2.291,4.025,3.843c0.888,1.554,1.442,3.229,1.665,5.024
		c0.221,1.796,0.333,3.48,0.333,5.054H1085.278z"/>
	<path fill="#0B3E75" d="M1101.135,257.426h8.716v16.524h10.169v-16.524h8.716v43.217h-8.716v-19.188h-10.169v19.188h-8.716V257.426
		z"/>
	<path fill="#0B3E75" d="M1145.018,257.426h10.774l11.439,43.217h-9.079l-1.997-9.14h-11.5l-1.998,9.14h-9.079L1145.018,257.426z
		 M1146.168,284.361h8.474l-4.176-19.43h-0.121L1146.168,284.361z"/>
	<path fill="#0B3E75" d="M1172.498,300.643v-43.217h8.716v43.217H1172.498z"/>
	<path fill="#0B3E75" d="M1189.506,257.426h16.101c3.632,0,6.456,0.918,8.474,2.754c2.018,1.837,3.026,4.63,3.026,8.383
		c0,2.905-0.585,5.276-1.755,7.112c-1.171,1.836-2.986,3.017-5.447,3.541v0.121c1.492,0.203,2.683,0.575,3.571,1.12
		c0.887,0.544,1.573,1.332,2.058,2.36c0.484,1.029,0.817,2.331,0.999,3.904s0.292,3.511,0.332,5.811
		c0.04,2.3,0.172,4.056,0.394,5.266s0.736,2.038,1.544,2.481v0.363h-9.552c-0.449-0.605-0.734-1.301-0.856-2.088
		c-0.123-0.787-0.204-1.604-0.245-2.451l-0.239-8.292c-0.079-1.695-0.498-3.026-1.256-3.995c-0.758-0.969-2.033-1.453-3.826-1.453
		h-4.605v18.28h-8.716V257.426z M1198.222,276.311h3.632c2.098,0,3.712-0.494,4.843-1.483c1.129-0.988,1.694-2.653,1.694-4.994
		c0-3.995-2.019-5.992-6.053-5.992h-4.116V276.311z"/>
	<path fill="#0B3E75" d="M1241.742,300.643v-43.217h8.716v43.217H1241.742z"/>
	<path fill="#0B3E75" d="M1268.798,257.426l10.532,29.599h0.121v-29.599h7.989v43.217h-9.927l-10.652-30.264h-0.121v30.264h-7.99
		v-43.217H1268.798z"/>
	<path fill="#0B3E75" d="M1075.23,330.06h10.774l11.439,43.217h-9.079l-1.997-9.14h-11.5l-1.998,9.14h-9.079L1075.23,330.06z
		 M1076.38,356.995h8.474l-4.176-19.43h-0.121L1076.38,356.995z"/>
	<path fill="#0B3E75" d="M1102.286,330.06h15.253c2.219,0,4.086,0.374,5.6,1.12c1.513,0.748,2.732,1.725,3.661,2.936
		c0.928,1.21,1.594,2.593,1.998,4.146c0.402,1.554,0.605,3.138,0.605,4.751c0,2.26-0.333,4.207-0.999,5.841
		s-1.595,2.977-2.784,4.025c-1.191,1.05-2.633,1.836-4.328,2.36c-1.694,0.525-3.571,0.787-5.629,0.787h-4.661v17.25h-8.716V330.06z
		 M1111.002,349.61h3.874c1.734,0,3.137-0.524,4.207-1.574c1.068-1.049,1.604-2.683,1.604-4.903c0-2.179-0.464-3.833-1.392-4.963
		c-0.929-1.129-2.482-1.695-4.661-1.695h-3.632V349.61z"/>
	<path fill="#0B3E75" d="M1135.516,330.06h15.253c2.219,0,4.086,0.374,5.6,1.12c1.513,0.748,2.732,1.725,3.661,2.936
		c0.928,1.21,1.594,2.593,1.998,4.146c0.402,1.554,0.605,3.138,0.605,4.751c0,2.26-0.333,4.207-0.999,5.841
		s-1.595,2.977-2.784,4.025c-1.191,1.05-2.633,1.836-4.328,2.36c-1.694,0.525-3.571,0.787-5.629,0.787h-4.661v17.25h-8.716V330.06z
		 M1144.232,349.61h3.874c1.734,0,3.137-0.524,4.207-1.574c1.068-1.049,1.604-2.683,1.604-4.903c0-2.179-0.464-3.833-1.392-4.963
		c-0.929-1.129-2.482-1.695-4.661-1.695h-3.632V349.61z"/>
	<path fill="#0B3E75" d="M1168.746,373.277V330.06h8.716v36.075h15.435v7.143H1168.746z"/>
	<path fill="#0B3E75" d="M1199.01,373.277V330.06h8.716v43.217H1199.01z"/>
	<path fill="#0B3E75" d="M1240.168,330.06v7.143h-15.435v10.168h14.527v7.143h-14.527v11.621h16.04v7.143h-24.756V330.06H1240.168z"
		/>
	<path fill="#0B3E75" d="M1247.371,330.06h14.284c3.026,0,5.468,0.495,7.324,1.483c1.855,0.989,3.299,2.401,4.328,4.237
		c1.028,1.836,1.725,4.046,2.088,6.627c0.363,2.583,0.545,5.469,0.545,8.656c0,3.834-0.232,7.142-0.696,9.927
		c-0.464,2.784-1.262,5.084-2.391,6.9c-1.13,1.816-2.644,3.168-4.54,4.056c-1.896,0.888-4.297,1.332-7.202,1.332h-13.74V330.06z
		 M1256.087,366.861h3.874c1.492,0,2.713-0.262,3.662-0.787c0.947-0.524,1.694-1.393,2.239-2.603s0.908-2.804,1.09-4.782
		c0.182-1.977,0.272-4.438,0.272-7.384c0-2.461-0.082-4.61-0.242-6.446c-0.162-1.836-0.495-3.379-0.999-4.63
		c-0.505-1.25-1.251-2.188-2.239-2.815c-0.989-0.625-2.311-0.938-3.965-0.938h-3.692V366.861z"/>
	<path fill="#0B3E75" d="M1308.261,330.06h10.774l11.439,43.217h-9.079l-1.997-9.14h-11.5l-1.998,9.14h-9.079L1308.261,330.06z
		 M1309.411,356.995h8.474l-4.176-19.43h-0.121L1309.411,356.995z"/>
	<path fill="#0B3E75" d="M1345.365,330.06l10.532,29.599h0.121V330.06h7.989v43.217h-9.927l-10.652-30.264h-0.121v30.264h-7.99
		V330.06H1345.365z"/>
	<path fill="#0B3E75" d="M1380.289,330.06h10.774l11.439,43.217h-9.079l-1.997-9.14h-11.5l-1.998,9.14h-9.079L1380.289,330.06z
		 M1381.44,356.995h8.474l-4.176-19.43h-0.121L1381.44,356.995z"/>
	<path fill="#0B3E75" d="M1407.346,373.277V330.06h8.716v36.075h15.435v7.143H1407.346z"/>
	<path fill="#0B3E75" d="M1444.147,330.06l5.689,16.706h0.121l6.053-16.706h9.442l-11.197,26.209v17.008h-8.717v-17.008
		l-11.197-26.209H1444.147z"/>
	<path fill="#0B3E75" d="M1477.497,359.779v1.271c0,1.009,0.08,1.927,0.242,2.754c0.16,0.828,0.463,1.523,0.907,2.088
		c0.444,0.565,1.029,1.009,1.756,1.332c0.727,0.323,1.674,0.484,2.845,0.484c1.332,0,2.532-0.433,3.602-1.301
		c1.068-0.867,1.604-2.209,1.604-4.025c0-0.969-0.131-1.806-0.393-2.512c-0.264-0.706-0.696-1.341-1.302-1.906
		c-0.605-0.565-1.402-1.079-2.391-1.543c-0.989-0.464-2.21-0.938-3.662-1.423c-1.938-0.645-3.612-1.351-5.024-2.118
		c-1.412-0.766-2.593-1.665-3.54-2.694c-0.949-1.029-1.646-2.219-2.089-3.571c-0.444-1.352-0.666-2.915-0.666-4.691
		c0-4.277,1.19-7.465,3.571-9.563c2.381-2.098,5.649-3.147,9.806-3.147c1.938,0,3.723,0.211,5.357,0.635
		c1.634,0.424,3.046,1.11,4.236,2.058c1.19,0.949,2.119,2.159,2.784,3.632c0.666,1.473,0.999,3.238,0.999,5.296v1.211h-8.353
		c0-2.058-0.363-3.642-1.09-4.751c-0.727-1.109-1.937-1.665-3.632-1.665c-0.969,0-1.776,0.142-2.421,0.423
		c-0.646,0.283-1.16,0.657-1.544,1.12c-0.384,0.464-0.646,0.999-0.786,1.604c-0.143,0.605-0.212,1.231-0.212,1.876
		c0,1.332,0.281,2.452,0.847,3.359c0.565,0.908,1.775,1.746,3.632,2.512l6.719,2.905c1.613,0.726,2.956,1.483,4.025,2.27
		c1.068,0.787,1.916,1.634,2.542,2.542c0.625,0.908,1.06,1.907,1.302,2.996s0.363,2.3,0.363,3.632c0,4.561-1.322,7.909-3.965,10.047
		c-2.644,2.14-6.325,3.208-11.047,3.208c-4.923,0-8.443-1.099-10.562-3.298c-2.119-2.199-3.178-5.296-3.178-9.292v-1.755H1477.497z"
		/>
	<path fill="#0B3E75" d="M1504.129,373.277V330.06h8.716v43.217H1504.129z"/>
	<path fill="#0B3E75" d="M1528.159,359.779v1.271c0,1.009,0.08,1.927,0.242,2.754c0.16,0.828,0.463,1.523,0.907,2.088
		c0.444,0.565,1.029,1.009,1.756,1.332c0.727,0.323,1.674,0.484,2.845,0.484c1.332,0,2.532-0.433,3.602-1.301
		c1.068-0.867,1.604-2.209,1.604-4.025c0-0.969-0.131-1.806-0.393-2.512c-0.264-0.706-0.696-1.341-1.302-1.906
		c-0.605-0.565-1.402-1.079-2.391-1.543c-0.989-0.464-2.21-0.938-3.662-1.423c-1.938-0.645-3.612-1.351-5.024-2.118
		c-1.412-0.766-2.593-1.665-3.54-2.694c-0.949-1.029-1.646-2.219-2.089-3.571c-0.444-1.352-0.666-2.915-0.666-4.691
		c0-4.277,1.19-7.465,3.571-9.563c2.381-2.098,5.649-3.147,9.806-3.147c1.938,0,3.723,0.211,5.357,0.635
		c1.634,0.424,3.046,1.11,4.236,2.058c1.19,0.949,2.119,2.159,2.784,3.632c0.666,1.473,0.999,3.238,0.999,5.296v1.211h-8.353
		c0-2.058-0.363-3.642-1.09-4.751c-0.727-1.109-1.937-1.665-3.632-1.665c-0.969,0-1.776,0.142-2.421,0.423
		c-0.646,0.283-1.16,0.657-1.544,1.12c-0.384,0.464-0.646,0.999-0.786,1.604c-0.143,0.605-0.212,1.231-0.212,1.876
		c0,1.332,0.281,2.452,0.847,3.359c0.565,0.908,1.775,1.746,3.632,2.512l6.719,2.905c1.613,0.726,2.956,1.483,4.025,2.27
		c1.068,0.787,1.916,1.634,2.542,2.542c0.625,0.908,1.06,1.907,1.302,2.996s0.363,2.3,0.363,3.632c0,4.561-1.322,7.909-3.965,10.047
		c-2.644,2.14-6.325,3.208-11.047,3.208c-4.923,0-8.443-1.099-10.562-3.298c-2.119-2.199-3.178-5.296-3.178-9.292v-1.755H1528.159z"
		/>
	<path fill="#0B3E75" d="M1066.817,402.693h24.15v7.143h-15.435v10.168h14.527v7.143h-14.527v18.764h-8.716V402.693z"/>
	<path fill="#0B3E75" d="M1105.07,402.693h10.774l11.439,43.217h-9.079l-1.997-9.14h-11.5l-1.998,9.14h-9.079L1105.07,402.693z
		 M1106.22,429.628h8.474l-4.176-19.43h-0.121L1106.22,429.628z"/>
	<path fill="#0B3E75" d="M1140.297,402.693v30.143c0,1.09,0.07,2.088,0.212,2.996s0.403,1.695,0.787,2.36
		c0.383,0.666,0.897,1.191,1.544,1.574c0.645,0.384,1.492,0.575,2.542,0.575c1.008,0,1.846-0.191,2.512-0.575
		c0.666-0.383,1.189-0.908,1.574-1.574c0.383-0.665,0.645-1.452,0.786-2.36s0.212-1.906,0.212-2.996v-30.143h8.717v30.143
		c0,2.745-0.385,5.015-1.15,6.81c-0.767,1.796-1.796,3.219-3.087,4.268c-1.292,1.05-2.765,1.785-4.419,2.209
		c-1.655,0.424-3.369,0.636-5.145,0.636c-1.776,0-3.491-0.182-5.145-0.545c-1.655-0.363-3.128-1.06-4.419-2.088
		c-1.292-1.029-2.321-2.441-3.087-4.237c-0.768-1.795-1.15-4.146-1.15-7.052v-30.143H1140.297z"/>
</g>
</svg>
